<svg width="24" height="24" xmlns="http://www.w3.org/2000/svg" xmlns:xlink="http://www.w3.org/1999/xlink" xml:space="preserve" overflow="hidden"><g transform="translate(-592 -312)"><path d="M604 323C602.75 323 601.75 322 601.75 320.75 601.75 319.5 602.75 318.5 604 318.5 605.25 318.5 606.25 319.5 606.25 320.75 606.25 322 605.25 323 604 323ZM604 315.5C602.275 315.5 600.65 316.35 599.675 317.8 598.7 319.225 598.5 321.05 599.125 322.675L601.5 327.925 603.55 332.225C603.625 332.4 603.8 332.5 604 332.5 604.2 332.5 604.375 332.4 604.45 332.225L606.5 327.925 608.875 322.675C609.5 321.05 609.3 319.225 608.325 317.8 607.35 316.35 605.725 315.5 604 315.5Z" fill="#F5A623"/></g></svg>