<svg width="83" height="84" xmlns="http://www.w3.org/2000/svg" xmlns:xlink="http://www.w3.org/1999/xlink" xml:space="preserve" overflow="hidden"><g transform="translate(-2400 -521)"><path d="M2401 563.5C2401 540.58 2419.36 522 2442 522 2464.64 522 2483 540.58 2483 563.5 2483 586.42 2464.64 605 2442 605 2419.36 605 2401 586.42 2401 563.5Z" fill="#00A9FE" fill-rule="evenodd" fill-opacity="0.74902"/><g><g><g><path d="M24.0405 41.3946 31.3395 34.0957 41.7009 42.5175C41.905 42.7217 42.2623 42.6707 42.4665 42.4665 42.6707 42.2623 42.6707 41.9561 42.5175 41.7009L34.0957 31.3905 41.3946 24.0916C41.9561 23.5301 42.1092 22.7134 41.854 21.9478 41.5988 21.1822 40.8842 20.6718 40.1186 20.6208 38.0769 20.4166 35.5759 21.0801 33.0238 22.4582L22.203 13.7812C23.1218 11.9947 23.5301 10.0041 23.377 8.01351 23.1728 6.58435 21.3864 5.81873 20.4166 6.78851L6.78851 20.4166C5.81873 21.3864 6.58435 23.1728 8.01351 23.377 10.0041 23.5301 11.9947 23.1728 13.7812 22.203L22.4582 33.0238C21.0801 35.5759 20.4676 38.0769 20.6208 40.1186 20.6718 40.8842 21.1822 41.5988 21.9478 41.854 22.6624 42.1602 23.4791 41.9561 24.0405 41.3946Z" fill="#FFFFFF" transform="matrix(1.02041 0 0 1 2400 521)"/></g></g></g></g></svg>